<mxfile host="app.diagrams.net" modified="2023-07-22T12:16:54.216Z" agent="Mozilla/5.0 (Windows NT 10.0; Win64; x64) AppleWebKit/537.36 (KHTML, like Gecko) Chrome/115.0.0.0 Safari/537.36" etag="f57c7jiy8vLIW8lGHaeh" version="21.6.5" type="device">
  <diagram id="C5RBs43oDa-KdzZeNtuy" name="Page-1">
    <mxGraphModel dx="2554" dy="2151" grid="1" gridSize="10" guides="1" tooltips="1" connect="1" arrows="1" fold="1" page="1" pageScale="1" pageWidth="827" pageHeight="1169" math="0" shadow="0">
      <root>
        <mxCell id="WIyWlLk6GJQsqaUBKTNV-0" />
        <mxCell id="WIyWlLk6GJQsqaUBKTNV-1" parent="WIyWlLk6GJQsqaUBKTNV-0" />
        <mxCell id="haKgmvT-a0CSb0r6jhET-39" style="edgeStyle=orthogonalEdgeStyle;rounded=0;orthogonalLoop=1;jettySize=auto;html=1;exitX=0.5;exitY=0;exitDx=0;exitDy=0;entryX=0.377;entryY=0.98;entryDx=0;entryDy=0;entryPerimeter=0;" edge="1" parent="WIyWlLk6GJQsqaUBKTNV-1" source="zkfFHV4jXpPFQw0GAbJ--0" target="haKgmvT-a0CSb0r6jhET-33">
          <mxGeometry relative="1" as="geometry" />
        </mxCell>
        <mxCell id="zkfFHV4jXpPFQw0GAbJ--0" value="student" style="swimlane;fontStyle=2;align=center;verticalAlign=top;childLayout=stackLayout;horizontal=1;startSize=26;horizontalStack=0;resizeParent=1;resizeLast=0;collapsible=1;marginBottom=0;rounded=0;shadow=0;strokeWidth=1;" parent="WIyWlLk6GJQsqaUBKTNV-1" vertex="1">
          <mxGeometry x="130" y="130" width="160" height="394" as="geometry">
            <mxRectangle x="230" y="140" width="160" height="26" as="alternateBounds" />
          </mxGeometry>
        </mxCell>
        <mxCell id="haKgmvT-a0CSb0r6jhET-11" value="&amp;nbsp;student id" style="text;html=1;strokeColor=none;fillColor=none;align=left;verticalAlign=middle;whiteSpace=wrap;rounded=0;" vertex="1" parent="zkfFHV4jXpPFQw0GAbJ--0">
          <mxGeometry y="26" width="160" height="30" as="geometry" />
        </mxCell>
        <mxCell id="haKgmvT-a0CSb0r6jhET-35" value="&amp;nbsp;his course" style="text;html=1;strokeColor=none;fillColor=none;align=left;verticalAlign=middle;whiteSpace=wrap;rounded=0;" vertex="1" parent="zkfFHV4jXpPFQw0GAbJ--0">
          <mxGeometry y="56" width="160" height="30" as="geometry" />
        </mxCell>
        <mxCell id="haKgmvT-a0CSb0r6jhET-84" value="&amp;nbsp;notes" style="text;html=1;strokeColor=none;fillColor=none;align=left;verticalAlign=middle;whiteSpace=wrap;rounded=0;" vertex="1" parent="zkfFHV4jXpPFQw0GAbJ--0">
          <mxGeometry y="86" width="160" height="30" as="geometry" />
        </mxCell>
        <mxCell id="haKgmvT-a0CSb0r6jhET-61" value="&amp;nbsp;attendance" style="text;html=1;strokeColor=none;fillColor=none;align=left;verticalAlign=middle;whiteSpace=wrap;rounded=0;" vertex="1" parent="zkfFHV4jXpPFQw0GAbJ--0">
          <mxGeometry y="116" width="160" height="30" as="geometry" />
        </mxCell>
        <mxCell id="haKgmvT-a0CSb0r6jhET-36" value="&amp;nbsp;profile" style="text;html=1;strokeColor=none;fillColor=none;align=left;verticalAlign=middle;whiteSpace=wrap;rounded=0;" vertex="1" parent="zkfFHV4jXpPFQw0GAbJ--0">
          <mxGeometry y="146" width="160" height="30" as="geometry" />
        </mxCell>
        <mxCell id="haKgmvT-a0CSb0r6jhET-2" value="" style="line;strokeWidth=1;fillColor=none;align=left;verticalAlign=middle;spacingTop=-1;spacingLeft=3;spacingRight=3;rotatable=0;labelPosition=right;points=[];portConstraint=eastwest;strokeColor=inherit;" vertex="1" parent="zkfFHV4jXpPFQw0GAbJ--0">
          <mxGeometry y="176" width="160" height="8" as="geometry" />
        </mxCell>
        <mxCell id="haKgmvT-a0CSb0r6jhET-5" value="&amp;nbsp;enroll courses" style="text;html=1;strokeColor=none;fillColor=none;align=left;verticalAlign=middle;whiteSpace=wrap;rounded=0;" vertex="1" parent="zkfFHV4jXpPFQw0GAbJ--0">
          <mxGeometry y="184" width="160" height="30" as="geometry" />
        </mxCell>
        <mxCell id="haKgmvT-a0CSb0r6jhET-6" value="&amp;nbsp;purchase the course" style="text;html=1;strokeColor=none;fillColor=none;align=left;verticalAlign=middle;whiteSpace=wrap;rounded=0;" vertex="1" parent="zkfFHV4jXpPFQw0GAbJ--0">
          <mxGeometry y="214" width="160" height="30" as="geometry" />
        </mxCell>
        <mxCell id="haKgmvT-a0CSb0r6jhET-7" value="&amp;nbsp;show courses material" style="text;html=1;strokeColor=none;fillColor=none;align=left;verticalAlign=middle;whiteSpace=wrap;rounded=0;" vertex="1" parent="zkfFHV4jXpPFQw0GAbJ--0">
          <mxGeometry y="244" width="160" height="30" as="geometry" />
        </mxCell>
        <mxCell id="haKgmvT-a0CSb0r6jhET-85" value="&amp;nbsp;show notes" style="text;html=1;strokeColor=none;fillColor=none;align=left;verticalAlign=middle;whiteSpace=wrap;rounded=0;" vertex="1" parent="zkfFHV4jXpPFQw0GAbJ--0">
          <mxGeometry y="274" width="160" height="30" as="geometry" />
        </mxCell>
        <mxCell id="haKgmvT-a0CSb0r6jhET-8" value="&amp;nbsp;show assignments" style="text;html=1;strokeColor=none;fillColor=none;align=left;verticalAlign=middle;whiteSpace=wrap;rounded=0;" vertex="1" parent="zkfFHV4jXpPFQw0GAbJ--0">
          <mxGeometry y="304" width="160" height="30" as="geometry" />
        </mxCell>
        <mxCell id="haKgmvT-a0CSb0r6jhET-21" value="&amp;nbsp;show profile" style="text;html=1;strokeColor=none;fillColor=none;align=left;verticalAlign=middle;whiteSpace=wrap;rounded=0;" vertex="1" parent="zkfFHV4jXpPFQw0GAbJ--0">
          <mxGeometry y="334" width="160" height="30" as="geometry" />
        </mxCell>
        <mxCell id="haKgmvT-a0CSb0r6jhET-10" value="&amp;nbsp;attendance" style="text;html=1;strokeColor=none;fillColor=none;align=left;verticalAlign=middle;whiteSpace=wrap;rounded=0;" vertex="1" parent="zkfFHV4jXpPFQw0GAbJ--0">
          <mxGeometry y="364" width="160" height="30" as="geometry" />
        </mxCell>
        <mxCell id="haKgmvT-a0CSb0r6jhET-40" style="edgeStyle=orthogonalEdgeStyle;rounded=0;orthogonalLoop=1;jettySize=auto;html=1;exitX=0.5;exitY=0;exitDx=0;exitDy=0;entryX=0.651;entryY=1.113;entryDx=0;entryDy=0;entryPerimeter=0;" edge="1" parent="WIyWlLk6GJQsqaUBKTNV-1" source="haKgmvT-a0CSb0r6jhET-12" target="haKgmvT-a0CSb0r6jhET-33">
          <mxGeometry relative="1" as="geometry" />
        </mxCell>
        <mxCell id="haKgmvT-a0CSb0r6jhET-12" value="owner" style="swimlane;fontStyle=0;childLayout=stackLayout;horizontal=1;startSize=30;horizontalStack=0;resizeParent=1;resizeParentMax=0;resizeLast=0;collapsible=1;marginBottom=0;whiteSpace=wrap;html=1;" vertex="1" parent="WIyWlLk6GJQsqaUBKTNV-1">
          <mxGeometry x="560" y="130" width="140" height="248" as="geometry" />
        </mxCell>
        <mxCell id="haKgmvT-a0CSb0r6jhET-13" value="owner id" style="text;strokeColor=none;fillColor=none;align=left;verticalAlign=middle;spacingLeft=4;spacingRight=4;overflow=hidden;points=[[0,0.5],[1,0.5]];portConstraint=eastwest;rotatable=0;whiteSpace=wrap;html=1;" vertex="1" parent="haKgmvT-a0CSb0r6jhET-12">
          <mxGeometry y="30" width="140" height="30" as="geometry" />
        </mxCell>
        <mxCell id="haKgmvT-a0CSb0r6jhET-18" value="" style="line;strokeWidth=1;fillColor=none;align=left;verticalAlign=middle;spacingTop=-1;spacingLeft=3;spacingRight=3;rotatable=0;labelPosition=right;points=[];portConstraint=eastwest;strokeColor=inherit;" vertex="1" parent="haKgmvT-a0CSb0r6jhET-12">
          <mxGeometry y="60" width="140" height="8" as="geometry" />
        </mxCell>
        <mxCell id="haKgmvT-a0CSb0r6jhET-19" value="&amp;nbsp;upload courses" style="text;html=1;strokeColor=none;fillColor=none;align=left;verticalAlign=middle;whiteSpace=wrap;rounded=0;" vertex="1" parent="haKgmvT-a0CSb0r6jhET-12">
          <mxGeometry y="68" width="140" height="30" as="geometry" />
        </mxCell>
        <mxCell id="haKgmvT-a0CSb0r6jhET-22" value="&amp;nbsp;upload assignments" style="text;html=1;strokeColor=none;fillColor=none;align=left;verticalAlign=middle;whiteSpace=wrap;rounded=0;" vertex="1" parent="haKgmvT-a0CSb0r6jhET-12">
          <mxGeometry y="98" width="140" height="30" as="geometry" />
        </mxCell>
        <mxCell id="haKgmvT-a0CSb0r6jhET-23" value="&amp;nbsp;upload notes" style="text;html=1;strokeColor=none;fillColor=none;align=left;verticalAlign=middle;whiteSpace=wrap;rounded=0;" vertex="1" parent="haKgmvT-a0CSb0r6jhET-12">
          <mxGeometry y="128" width="140" height="30" as="geometry" />
        </mxCell>
        <mxCell id="haKgmvT-a0CSb0r6jhET-24" value="&amp;nbsp;show result of exams" style="text;html=1;strokeColor=none;fillColor=none;align=left;verticalAlign=middle;whiteSpace=wrap;rounded=0;" vertex="1" parent="haKgmvT-a0CSb0r6jhET-12">
          <mxGeometry y="158" width="140" height="30" as="geometry" />
        </mxCell>
        <mxCell id="haKgmvT-a0CSb0r6jhET-25" value="&amp;nbsp;take attendance of&amp;nbsp; &amp;nbsp;students" style="text;html=1;strokeColor=none;fillColor=none;align=left;verticalAlign=middle;whiteSpace=wrap;rounded=0;" vertex="1" parent="haKgmvT-a0CSb0r6jhET-12">
          <mxGeometry y="188" width="140" height="30" as="geometry" />
        </mxCell>
        <mxCell id="haKgmvT-a0CSb0r6jhET-27" value="&amp;nbsp;access student&amp;nbsp; &amp;nbsp;information" style="text;html=1;strokeColor=none;fillColor=none;align=left;verticalAlign=middle;whiteSpace=wrap;rounded=0;" vertex="1" parent="haKgmvT-a0CSb0r6jhET-12">
          <mxGeometry y="218" width="140" height="30" as="geometry" />
        </mxCell>
        <mxCell id="haKgmvT-a0CSb0r6jhET-28" value="person" style="swimlane;fontStyle=0;childLayout=stackLayout;horizontal=1;startSize=26;fillColor=none;horizontalStack=0;resizeParent=1;resizeParentMax=0;resizeLast=0;collapsible=1;marginBottom=0;whiteSpace=wrap;html=1;" vertex="1" parent="WIyWlLk6GJQsqaUBKTNV-1">
          <mxGeometry x="344" y="-80" width="140" height="134" as="geometry" />
        </mxCell>
        <mxCell id="haKgmvT-a0CSb0r6jhET-29" value="name" style="text;strokeColor=none;fillColor=none;align=left;verticalAlign=top;spacingLeft=4;spacingRight=4;overflow=hidden;rotatable=0;points=[[0,0.5],[1,0.5]];portConstraint=eastwest;whiteSpace=wrap;html=1;" vertex="1" parent="haKgmvT-a0CSb0r6jhET-28">
          <mxGeometry y="26" width="140" height="26" as="geometry" />
        </mxCell>
        <mxCell id="haKgmvT-a0CSb0r6jhET-30" value="email" style="text;strokeColor=none;fillColor=none;align=left;verticalAlign=top;spacingLeft=4;spacingRight=4;overflow=hidden;rotatable=0;points=[[0,0.5],[1,0.5]];portConstraint=eastwest;whiteSpace=wrap;html=1;" vertex="1" parent="haKgmvT-a0CSb0r6jhET-28">
          <mxGeometry y="52" width="140" height="26" as="geometry" />
        </mxCell>
        <mxCell id="haKgmvT-a0CSb0r6jhET-31" value="password" style="text;strokeColor=none;fillColor=none;align=left;verticalAlign=top;spacingLeft=4;spacingRight=4;overflow=hidden;rotatable=0;points=[[0,0.5],[1,0.5]];portConstraint=eastwest;whiteSpace=wrap;html=1;" vertex="1" parent="haKgmvT-a0CSb0r6jhET-28">
          <mxGeometry y="78" width="140" height="26" as="geometry" />
        </mxCell>
        <mxCell id="haKgmvT-a0CSb0r6jhET-32" value="&amp;nbsp;phone" style="text;html=1;strokeColor=none;fillColor=none;align=left;verticalAlign=middle;whiteSpace=wrap;rounded=0;" vertex="1" parent="haKgmvT-a0CSb0r6jhET-28">
          <mxGeometry y="104" width="140" height="30" as="geometry" />
        </mxCell>
        <mxCell id="haKgmvT-a0CSb0r6jhET-33" value="&amp;nbsp;image" style="text;html=1;strokeColor=none;fillColor=none;align=left;verticalAlign=middle;whiteSpace=wrap;rounded=0;" vertex="1" parent="WIyWlLk6GJQsqaUBKTNV-1">
          <mxGeometry x="344" y="24" width="140" height="30" as="geometry" />
        </mxCell>
        <mxCell id="haKgmvT-a0CSb0r6jhET-42" value="courses" style="swimlane;fontStyle=0;childLayout=stackLayout;horizontal=1;startSize=30;horizontalStack=0;resizeParent=1;resizeParentMax=0;resizeLast=0;collapsible=1;marginBottom=0;whiteSpace=wrap;html=1;" vertex="1" parent="WIyWlLk6GJQsqaUBKTNV-1">
          <mxGeometry x="343" y="179" width="140" height="180" as="geometry" />
        </mxCell>
        <mxCell id="haKgmvT-a0CSb0r6jhET-43" value="course id" style="text;strokeColor=none;fillColor=none;align=left;verticalAlign=middle;spacingLeft=4;spacingRight=4;overflow=hidden;points=[[0,0.5],[1,0.5]];portConstraint=eastwest;rotatable=0;whiteSpace=wrap;html=1;" vertex="1" parent="haKgmvT-a0CSb0r6jhET-42">
          <mxGeometry y="30" width="140" height="30" as="geometry" />
        </mxCell>
        <mxCell id="haKgmvT-a0CSb0r6jhET-44" value="course name" style="text;strokeColor=none;fillColor=none;align=left;verticalAlign=middle;spacingLeft=4;spacingRight=4;overflow=hidden;points=[[0,0.5],[1,0.5]];portConstraint=eastwest;rotatable=0;whiteSpace=wrap;html=1;" vertex="1" parent="haKgmvT-a0CSb0r6jhET-42">
          <mxGeometry y="60" width="140" height="30" as="geometry" />
        </mxCell>
        <mxCell id="haKgmvT-a0CSb0r6jhET-45" value="number of videos" style="text;strokeColor=none;fillColor=none;align=left;verticalAlign=middle;spacingLeft=4;spacingRight=4;overflow=hidden;points=[[0,0.5],[1,0.5]];portConstraint=eastwest;rotatable=0;whiteSpace=wrap;html=1;" vertex="1" parent="haKgmvT-a0CSb0r6jhET-42">
          <mxGeometry y="90" width="140" height="30" as="geometry" />
        </mxCell>
        <mxCell id="haKgmvT-a0CSb0r6jhET-49" value="&amp;nbsp;number of students" style="text;html=1;strokeColor=none;fillColor=none;align=left;verticalAlign=middle;whiteSpace=wrap;rounded=0;" vertex="1" parent="haKgmvT-a0CSb0r6jhET-42">
          <mxGeometry y="120" width="140" height="30" as="geometry" />
        </mxCell>
        <mxCell id="haKgmvT-a0CSb0r6jhET-50" value="&amp;nbsp;the price of the course" style="text;html=1;strokeColor=none;fillColor=none;align=left;verticalAlign=middle;whiteSpace=wrap;rounded=0;" vertex="1" parent="haKgmvT-a0CSb0r6jhET-42">
          <mxGeometry y="150" width="140" height="30" as="geometry" />
        </mxCell>
        <mxCell id="haKgmvT-a0CSb0r6jhET-47" value="upload" style="edgeStyle=orthogonalEdgeStyle;rounded=0;orthogonalLoop=1;jettySize=auto;html=1;exitX=0.5;exitY=1;exitDx=0;exitDy=0;entryX=1;entryY=0.5;entryDx=0;entryDy=0;" edge="1" parent="WIyWlLk6GJQsqaUBKTNV-1" source="haKgmvT-a0CSb0r6jhET-27" target="haKgmvT-a0CSb0r6jhET-43">
          <mxGeometry relative="1" as="geometry" />
        </mxCell>
        <mxCell id="haKgmvT-a0CSb0r6jhET-48" value="have" style="edgeStyle=orthogonalEdgeStyle;rounded=0;orthogonalLoop=1;jettySize=auto;html=1;exitX=0.5;exitY=1;exitDx=0;exitDy=0;entryX=-0.014;entryY=0.88;entryDx=0;entryDy=0;entryPerimeter=0;" edge="1" parent="WIyWlLk6GJQsqaUBKTNV-1" source="haKgmvT-a0CSb0r6jhET-10" target="haKgmvT-a0CSb0r6jhET-43">
          <mxGeometry relative="1" as="geometry" />
        </mxCell>
        <mxCell id="haKgmvT-a0CSb0r6jhET-51" value="assignments" style="swimlane;fontStyle=0;childLayout=stackLayout;horizontal=1;startSize=30;horizontalStack=0;resizeParent=1;resizeParentMax=0;resizeLast=0;collapsible=1;marginBottom=0;whiteSpace=wrap;html=1;" vertex="1" parent="WIyWlLk6GJQsqaUBKTNV-1">
          <mxGeometry x="330" y="650" width="140" height="150" as="geometry" />
        </mxCell>
        <mxCell id="haKgmvT-a0CSb0r6jhET-52" value="assignment id" style="text;strokeColor=none;fillColor=none;align=left;verticalAlign=middle;spacingLeft=4;spacingRight=4;overflow=hidden;points=[[0,0.5],[1,0.5]];portConstraint=eastwest;rotatable=0;whiteSpace=wrap;html=1;" vertex="1" parent="haKgmvT-a0CSb0r6jhET-51">
          <mxGeometry y="30" width="140" height="30" as="geometry" />
        </mxCell>
        <mxCell id="haKgmvT-a0CSb0r6jhET-53" value="assignment name" style="text;strokeColor=none;fillColor=none;align=left;verticalAlign=middle;spacingLeft=4;spacingRight=4;overflow=hidden;points=[[0,0.5],[1,0.5]];portConstraint=eastwest;rotatable=0;whiteSpace=wrap;html=1;" vertex="1" parent="haKgmvT-a0CSb0r6jhET-51">
          <mxGeometry y="60" width="140" height="30" as="geometry" />
        </mxCell>
        <mxCell id="haKgmvT-a0CSb0r6jhET-54" value="deadline of assignment" style="text;strokeColor=none;fillColor=none;align=left;verticalAlign=middle;spacingLeft=4;spacingRight=4;overflow=hidden;points=[[0,0.5],[1,0.5]];portConstraint=eastwest;rotatable=0;whiteSpace=wrap;html=1;" vertex="1" parent="haKgmvT-a0CSb0r6jhET-51">
          <mxGeometry y="90" width="140" height="30" as="geometry" />
        </mxCell>
        <mxCell id="haKgmvT-a0CSb0r6jhET-71" value="&amp;nbsp;degree of assignment" style="text;html=1;strokeColor=none;fillColor=none;align=left;verticalAlign=middle;whiteSpace=wrap;rounded=0;" vertex="1" parent="haKgmvT-a0CSb0r6jhET-51">
          <mxGeometry y="120" width="140" height="30" as="geometry" />
        </mxCell>
        <mxCell id="haKgmvT-a0CSb0r6jhET-55" value="have" style="edgeStyle=orthogonalEdgeStyle;rounded=0;orthogonalLoop=1;jettySize=auto;html=1;exitX=0.25;exitY=1;exitDx=0;exitDy=0;entryX=0.25;entryY=0;entryDx=0;entryDy=0;" edge="1" parent="WIyWlLk6GJQsqaUBKTNV-1" source="haKgmvT-a0CSb0r6jhET-10" target="haKgmvT-a0CSb0r6jhET-51">
          <mxGeometry relative="1" as="geometry" />
        </mxCell>
        <mxCell id="haKgmvT-a0CSb0r6jhET-56" value="attendance" style="swimlane;fontStyle=0;childLayout=stackLayout;horizontal=1;startSize=30;horizontalStack=0;resizeParent=1;resizeParentMax=0;resizeLast=0;collapsible=1;marginBottom=0;whiteSpace=wrap;html=1;" vertex="1" parent="WIyWlLk6GJQsqaUBKTNV-1">
          <mxGeometry x="-70" y="620" width="140" height="90" as="geometry" />
        </mxCell>
        <mxCell id="haKgmvT-a0CSb0r6jhET-57" value="type of attendance" style="text;strokeColor=none;fillColor=none;align=left;verticalAlign=middle;spacingLeft=4;spacingRight=4;overflow=hidden;points=[[0,0.5],[1,0.5]];portConstraint=eastwest;rotatable=0;whiteSpace=wrap;html=1;" vertex="1" parent="haKgmvT-a0CSb0r6jhET-56">
          <mxGeometry y="30" width="140" height="30" as="geometry" />
        </mxCell>
        <mxCell id="haKgmvT-a0CSb0r6jhET-58" value="history of attendance" style="text;strokeColor=none;fillColor=none;align=left;verticalAlign=middle;spacingLeft=4;spacingRight=4;overflow=hidden;points=[[0,0.5],[1,0.5]];portConstraint=eastwest;rotatable=0;whiteSpace=wrap;html=1;" vertex="1" parent="haKgmvT-a0CSb0r6jhET-56">
          <mxGeometry y="60" width="140" height="30" as="geometry" />
        </mxCell>
        <mxCell id="haKgmvT-a0CSb0r6jhET-60" value="take" style="edgeStyle=orthogonalEdgeStyle;rounded=0;orthogonalLoop=1;jettySize=auto;html=1;exitX=0;exitY=1;exitDx=0;exitDy=0;entryX=0;entryY=0.5;entryDx=0;entryDy=0;" edge="1" parent="WIyWlLk6GJQsqaUBKTNV-1" source="haKgmvT-a0CSb0r6jhET-10" target="haKgmvT-a0CSb0r6jhET-57">
          <mxGeometry relative="1" as="geometry" />
        </mxCell>
        <mxCell id="haKgmvT-a0CSb0r6jhET-62" value="upload" style="edgeStyle=orthogonalEdgeStyle;rounded=0;orthogonalLoop=1;jettySize=auto;html=1;exitX=1;exitY=1;exitDx=0;exitDy=0;" edge="1" parent="WIyWlLk6GJQsqaUBKTNV-1" source="haKgmvT-a0CSb0r6jhET-27" target="haKgmvT-a0CSb0r6jhET-54">
          <mxGeometry relative="1" as="geometry" />
        </mxCell>
        <mxCell id="haKgmvT-a0CSb0r6jhET-63" value="profile" style="swimlane;fontStyle=0;childLayout=stackLayout;horizontal=1;startSize=30;horizontalStack=0;resizeParent=1;resizeParentMax=0;resizeLast=0;collapsible=1;marginBottom=0;whiteSpace=wrap;html=1;" vertex="1" parent="WIyWlLk6GJQsqaUBKTNV-1">
          <mxGeometry x="660" y="869" width="140" height="330" as="geometry" />
        </mxCell>
        <mxCell id="haKgmvT-a0CSb0r6jhET-64" value="name" style="text;strokeColor=none;fillColor=none;align=left;verticalAlign=middle;spacingLeft=4;spacingRight=4;overflow=hidden;points=[[0,0.5],[1,0.5]];portConstraint=eastwest;rotatable=0;whiteSpace=wrap;html=1;" vertex="1" parent="haKgmvT-a0CSb0r6jhET-63">
          <mxGeometry y="30" width="140" height="30" as="geometry" />
        </mxCell>
        <mxCell id="haKgmvT-a0CSb0r6jhET-65" value="email" style="text;strokeColor=none;fillColor=none;align=left;verticalAlign=middle;spacingLeft=4;spacingRight=4;overflow=hidden;points=[[0,0.5],[1,0.5]];portConstraint=eastwest;rotatable=0;whiteSpace=wrap;html=1;" vertex="1" parent="haKgmvT-a0CSb0r6jhET-63">
          <mxGeometry y="60" width="140" height="30" as="geometry" />
        </mxCell>
        <mxCell id="haKgmvT-a0CSb0r6jhET-66" value="phone" style="text;strokeColor=none;fillColor=none;align=left;verticalAlign=middle;spacingLeft=4;spacingRight=4;overflow=hidden;points=[[0,0.5],[1,0.5]];portConstraint=eastwest;rotatable=0;whiteSpace=wrap;html=1;" vertex="1" parent="haKgmvT-a0CSb0r6jhET-63">
          <mxGeometry y="90" width="140" height="30" as="geometry" />
        </mxCell>
        <mxCell id="haKgmvT-a0CSb0r6jhET-67" value="&amp;nbsp;image" style="text;html=1;strokeColor=none;fillColor=none;align=left;verticalAlign=middle;whiteSpace=wrap;rounded=0;" vertex="1" parent="haKgmvT-a0CSb0r6jhET-63">
          <mxGeometry y="120" width="140" height="30" as="geometry" />
        </mxCell>
        <mxCell id="haKgmvT-a0CSb0r6jhET-68" value="&amp;nbsp;completed courses" style="text;html=1;strokeColor=none;fillColor=none;align=left;verticalAlign=middle;whiteSpace=wrap;rounded=0;" vertex="1" parent="haKgmvT-a0CSb0r6jhET-63">
          <mxGeometry y="150" width="140" height="30" as="geometry" />
        </mxCell>
        <mxCell id="haKgmvT-a0CSb0r6jhET-72" value="&amp;nbsp;uncompleted courses" style="text;html=1;strokeColor=none;fillColor=none;align=left;verticalAlign=middle;whiteSpace=wrap;rounded=0;" vertex="1" parent="haKgmvT-a0CSb0r6jhET-63">
          <mxGeometry y="180" width="140" height="30" as="geometry" />
        </mxCell>
        <mxCell id="haKgmvT-a0CSb0r6jhET-86" value="&amp;nbsp;notes" style="text;html=1;strokeColor=none;fillColor=none;align=left;verticalAlign=middle;whiteSpace=wrap;rounded=0;" vertex="1" parent="haKgmvT-a0CSb0r6jhET-63">
          <mxGeometry y="210" width="140" height="30" as="geometry" />
        </mxCell>
        <mxCell id="haKgmvT-a0CSb0r6jhET-69" value="&amp;nbsp;assignments" style="text;html=1;strokeColor=none;fillColor=none;align=left;verticalAlign=middle;whiteSpace=wrap;rounded=0;" vertex="1" parent="haKgmvT-a0CSb0r6jhET-63">
          <mxGeometry y="240" width="140" height="30" as="geometry" />
        </mxCell>
        <mxCell id="haKgmvT-a0CSb0r6jhET-73" value="&amp;nbsp;degree of assignment" style="text;html=1;strokeColor=none;fillColor=none;align=left;verticalAlign=middle;whiteSpace=wrap;rounded=0;" vertex="1" parent="haKgmvT-a0CSb0r6jhET-63">
          <mxGeometry y="270" width="140" height="30" as="geometry" />
        </mxCell>
        <mxCell id="haKgmvT-a0CSb0r6jhET-70" value="&amp;nbsp;attendance" style="text;html=1;strokeColor=none;fillColor=none;align=left;verticalAlign=middle;whiteSpace=wrap;rounded=0;" vertex="1" parent="haKgmvT-a0CSb0r6jhET-63">
          <mxGeometry y="300" width="140" height="30" as="geometry" />
        </mxCell>
        <mxCell id="haKgmvT-a0CSb0r6jhET-74" value="his" style="edgeStyle=orthogonalEdgeStyle;rounded=0;orthogonalLoop=1;jettySize=auto;html=1;exitX=0;exitY=0.5;exitDx=0;exitDy=0;entryX=0;entryY=0.25;entryDx=0;entryDy=0;" edge="1" parent="WIyWlLk6GJQsqaUBKTNV-1" source="haKgmvT-a0CSb0r6jhET-35" target="haKgmvT-a0CSb0r6jhET-69">
          <mxGeometry relative="1" as="geometry" />
        </mxCell>
        <mxCell id="haKgmvT-a0CSb0r6jhET-77" value="have access" style="edgeStyle=orthogonalEdgeStyle;rounded=0;orthogonalLoop=1;jettySize=auto;html=1;exitX=1;exitY=0;exitDx=0;exitDy=0;entryX=0.75;entryY=0;entryDx=0;entryDy=0;" edge="1" parent="WIyWlLk6GJQsqaUBKTNV-1" source="haKgmvT-a0CSb0r6jhET-23" target="haKgmvT-a0CSb0r6jhET-63">
          <mxGeometry relative="1" as="geometry" />
        </mxCell>
        <mxCell id="haKgmvT-a0CSb0r6jhET-78" value="notes" style="swimlane;fontStyle=0;childLayout=stackLayout;horizontal=1;startSize=30;horizontalStack=0;resizeParent=1;resizeParentMax=0;resizeLast=0;collapsible=1;marginBottom=0;whiteSpace=wrap;html=1;" vertex="1" parent="WIyWlLk6GJQsqaUBKTNV-1">
          <mxGeometry x="510" y="465" width="140" height="120" as="geometry" />
        </mxCell>
        <mxCell id="haKgmvT-a0CSb0r6jhET-79" value="note id" style="text;strokeColor=none;fillColor=none;align=left;verticalAlign=middle;spacingLeft=4;spacingRight=4;overflow=hidden;points=[[0,0.5],[1,0.5]];portConstraint=eastwest;rotatable=0;whiteSpace=wrap;html=1;" vertex="1" parent="haKgmvT-a0CSb0r6jhET-78">
          <mxGeometry y="30" width="140" height="30" as="geometry" />
        </mxCell>
        <mxCell id="haKgmvT-a0CSb0r6jhET-80" value="note name" style="text;strokeColor=none;fillColor=none;align=left;verticalAlign=middle;spacingLeft=4;spacingRight=4;overflow=hidden;points=[[0,0.5],[1,0.5]];portConstraint=eastwest;rotatable=0;whiteSpace=wrap;html=1;" vertex="1" parent="haKgmvT-a0CSb0r6jhET-78">
          <mxGeometry y="60" width="140" height="30" as="geometry" />
        </mxCell>
        <mxCell id="haKgmvT-a0CSb0r6jhET-81" value="note content" style="text;strokeColor=none;fillColor=none;align=left;verticalAlign=middle;spacingLeft=4;spacingRight=4;overflow=hidden;points=[[0,0.5],[1,0.5]];portConstraint=eastwest;rotatable=0;whiteSpace=wrap;html=1;" vertex="1" parent="haKgmvT-a0CSb0r6jhET-78">
          <mxGeometry y="90" width="140" height="30" as="geometry" />
        </mxCell>
        <mxCell id="haKgmvT-a0CSb0r6jhET-82" value="upload" style="edgeStyle=orthogonalEdgeStyle;rounded=0;orthogonalLoop=1;jettySize=auto;html=1;exitX=0.75;exitY=1;exitDx=0;exitDy=0;entryX=1;entryY=0.5;entryDx=0;entryDy=0;" edge="1" parent="WIyWlLk6GJQsqaUBKTNV-1" source="haKgmvT-a0CSb0r6jhET-27" target="haKgmvT-a0CSb0r6jhET-79">
          <mxGeometry relative="1" as="geometry" />
        </mxCell>
        <mxCell id="haKgmvT-a0CSb0r6jhET-83" value="have" style="edgeStyle=orthogonalEdgeStyle;rounded=0;orthogonalLoop=1;jettySize=auto;html=1;exitX=1;exitY=0.25;exitDx=0;exitDy=0;entryX=0;entryY=0.5;entryDx=0;entryDy=0;" edge="1" parent="WIyWlLk6GJQsqaUBKTNV-1" source="haKgmvT-a0CSb0r6jhET-8" target="haKgmvT-a0CSb0r6jhET-79">
          <mxGeometry relative="1" as="geometry">
            <Array as="points">
              <mxPoint x="290" y="410" />
              <mxPoint x="400" y="410" />
              <mxPoint x="400" y="510" />
            </Array>
          </mxGeometry>
        </mxCell>
      </root>
    </mxGraphModel>
  </diagram>
</mxfile>
